<?xml version="1.0" standalone="no"?>
<!DOCTYPE svg PUBLIC "-//W3C//DTD SVG 20010904//EN"
 "http://www.w3.org/TR/2001/REC-SVG-20010904/DTD/svg10.dtd">
<svg version="1.0" xmlns="http://www.w3.org/2000/svg"
 width="876.000000pt" height="876.000000pt" viewBox="0 0 876.000000 876.000000"
 preserveAspectRatio="xMidYMid meet">
<metadata>
Created by potrace 1.14, written by Peter Selinger 2001-2017
</metadata>
<g transform="translate(0.000000,876.000000) scale(0.100000,-0.100000)"
fill="#000000" stroke="none">
<path d="M7183 6800 c-3 -11 -9 -20 -14 -20 -18 0 -25 -2 -51 -18 -23 -14 -58
-65 -58 -86 0 -3 11 -6 25 -6 17 0 25 5 25 18 0 11 12 23 33 30 17 7 47 26 66
44 33 29 33 31 16 44 -26 19 -36 17 -42 -6z"/>
<path d="M6781 6489 l-23 -19 25 0 c29 0 39 10 29 27 -5 8 -15 5 -31 -8z"/>
<path d="M7000 6392 c-45 -22 -73 -47 -76 -70 -2 -9 -6 -36 -9 -60 -3 -23 -10
-54 -15 -67 -9 -25 -11 -25 -35 -9 -24 16 -25 15 -35 -11 -5 -14 -10 -31 -10
-37 0 -6 -12 -32 -27 -59 -25 -47 -28 -49 -69 -49 -41 0 -44 -2 -53 -37 -14
-52 -18 -103 -12 -131 6 -23 6 -23 26 -4 25 24 55 61 55 67 0 2 29 45 65 95
36 49 78 118 94 153 16 34 41 89 55 121 15 33 41 72 58 88 16 15 29 28 27 27
-2 0 -20 -8 -39 -17z"/>
<path d="M6694 6389 c-9 -15 -2 -18 20 -9 17 6 18 7 3 13 -9 3 -19 2 -23 -4z"/>
<path d="M6660 6355 c-7 -9 -10 -18 -7 -21 3 -3 10 4 17 15 13 25 8 27 -10 6z"/>
<path d="M6600 6119 c0 -13 42 -21 53 -10 12 12 13 12 -25 15 -16 2 -28 -1
-28 -5z"/>
<path d="M6541 6113 c-28 -11 -321 -317 -321 -335 0 -10 -7 -19 -15 -19 -27
-2 -30 -4 -60 -29 -86 -72 -157 -150 -151 -165 3 -9 2 -14 -3 -11 -5 3 -14 -1
-21 -9 -7 -8 -20 -15 -29 -15 -9 0 -29 -12 -46 -26 -95 -81 -153 -139 -148
-148 3 -5 2 -6 -4 -3 -5 3 -40 -23 -78 -59 -38 -35 -71 -64 -73 -64 -11 0 -60
-55 -58 -64 2 -6 1 -7 -2 -2 -2 4 -33 -20 -68 -55 -35 -34 -60 -67 -57 -72 3
-6 1 -7 -5 -4 -5 4 -25 -9 -44 -28 -18 -20 -48 -50 -65 -67 -18 -17 -30 -35
-26 -41 3 -6 2 -7 -4 -4 -11 7 -123 -104 -123 -121 0 -7 -3 -11 -7 -10 -5 2
-26 -16 -48 -40 -22 -23 -93 -97 -158 -163 -64 -66 -115 -125 -112 -130 4 -5
-2 -6 -11 -2 -14 5 -16 3 -11 -11 4 -9 3 -15 -1 -12 -5 3 -50 -35 -102 -85
-59 -57 -99 -88 -109 -85 -9 3 -36 10 -60 17 -39 12 -44 11 -54 -7 -23 -42
-94 -104 -120 -104 -14 0 -33 -7 -41 -16 -15 -14 -69 -121 -111 -219 -17 -38
-120 -147 -130 -137 -2 3 -7 -2 -11 -11 -3 -9 -16 -23 -29 -31 l-24 -16 21 48
c11 26 22 56 23 67 2 11 10 48 19 83 24 90 16 196 -17 245 -14 20 -33 57 -43
82 -42 100 -92 30 -108 -150 -8 -92 -19 -155 -29 -163 -7 -5 -28 -15 -48 -21
-34 -11 -45 -14 -101 -26 -13 -2 -35 -7 -50 -11 -32 -6 -33 -3 -19 72 28 147
26 161 -35 241 -19 25 -34 51 -34 59 0 18 -10 18 -38 -1 -25 -18 -51 -9 -76
26 -24 35 -67 17 -141 -58 -36 -36 -65 -69 -65 -73 0 -13 -78 -111 -83 -103
-3 4 -10 33 -16 63 -18 97 -20 102 -38 122 -22 25 -84 57 -109 57 -10 0 -40 2
-66 4 -25 3 -68 1 -95 -4 -26 -5 -61 -12 -78 -15 -78 -13 -332 -97 -346 -114
-11 -12 -15 -29 -11 -47 6 -35 50 -93 69 -93 16 0 14 -20 -7 -74 -8 -23 -12
-24 -33 -15 -30 13 -71 -2 -93 -36 -21 -32 -13 -81 21 -117 23 -25 24 -29 13
-82 -11 -51 -10 -60 7 -93 24 -43 75 -69 105 -53 20 10 37 53 31 78 -2 14 27
101 40 116 4 5 18 10 31 12 13 2 59 10 103 18 44 8 97 17 118 20 69 11 101 69
66 120 -25 36 -36 38 -161 21 -88 -11 -90 -9 -61 78 l25 75 77 21 c42 12 109
23 147 26 l71 6 12 -73 c14 -77 41 -151 67 -179 14 -16 11 -26 -39 -121 -66
-125 -72 -149 -52 -188 20 -39 76 -67 106 -54 20 9 56 64 112 174 38 74 178
303 198 325 10 11 36 40 58 65 l40 45 -6 -80 c-3 -44 -10 -83 -14 -86 -5 -3
-8 -16 -7 -30 1 -13 -5 -46 -14 -74 -53 -168 -59 -196 -52 -228 4 -17 8 -35 8
-40 1 -4 14 -18 30 -32 62 -53 124 -22 182 90 11 23 123 82 173 91 31 7 33 5
26 -16 -13 -40 -7 -85 15 -123 l22 -37 -63 -73 c-132 -149 -227 -253 -291
-315 -32 -30 -55 -59 -51 -65 4 -6 1 -7 -6 -3 -7 5 -18 1 -24 -7 -19 -24 -177
-147 -188 -147 -6 0 -8 -7 -5 -16 3 -8 2 -12 -4 -9 -9 5 -49 -10 -60 -24 -3
-3 -23 -16 -45 -28 -22 -13 -39 -27 -38 -32 2 -6 -3 -8 -10 -5 -19 7 -216
-196 -217 -223 0 -7 -4 -13 -9 -13 -5 0 -26 -24 -47 -52 -21 -29 -42 -54 -46
-56 -5 -2 -8 -8 -8 -13 0 -6 -4 -15 -10 -22 -93 -115 -108 -143 -104 -209 2
-32 12 -75 23 -95 26 -50 89 -123 107 -123 8 0 14 -4 14 -9 0 -5 24 -21 53
-35 164 -83 311 -66 432 51 53 51 132 110 178 133 27 13 27 14 8 22 -35 13
-19 80 30 129 10 10 19 24 19 30 0 5 5 7 12 3 8 -5 9 -2 5 10 -4 10 -3 15 4
11 13 -9 41 14 32 28 -3 5 -2 7 4 4 5 -3 36 7 67 23 33 18 80 32 113 36 73 8
185 42 178 54 -3 6 1 7 9 4 10 -4 16 -1 16 7 0 7 3 10 6 6 22 -21 213 178 264
273 7 14 16 27 19 30 10 8 62 90 57 90 -3 0 6 11 20 25 14 14 22 30 18 37 -4
7 -3 8 4 4 7 -4 12 -4 12 1 0 8 20 33 78 98 15 17 26 33 24 37 -1 5 1 7 6 6
12 -4 72 45 66 54 -3 5 -1 7 4 6 11 -3 58 43 117 116 22 27 53 61 69 75 17 14
42 38 58 53 15 16 30 28 33 28 4 0 30 25 59 55 48 51 76 68 76 46 0 -12 67
-51 88 -51 25 0 59 26 65 50 3 14 -3 30 -19 47 -27 29 -29 41 -14 94 9 32 33
65 136 192 8 9 14 19 14 22 0 5 15 24 62 78 15 18 26 38 23 44 -2 7 0 12 5 10
5 -1 20 10 32 25 13 15 35 28 53 30 27 3 30 0 37 -40 4 -23 14 -52 22 -63 13
-19 11 -27 -16 -87 -17 -37 -38 -75 -46 -84 -8 -10 -12 -18 -7 -18 4 0 0 -12
-10 -26 -16 -25 -17 -65 -2 -155 5 -29 37 -68 68 -84 49 -26 205 -23 363 6 57
11 76 20 108 49 21 21 38 44 38 53 0 9 -16 32 -36 52 -33 33 -39 35 -81 30
-25 -3 -50 -8 -56 -12 -18 -11 -224 -26 -239 -17 -4 3 3 27 17 55 l25 49 96 0
c77 0 103 4 137 21 45 23 87 57 87 71 0 9 -88 97 -93 92 -1 -1 -41 -4 -89 -6
-86 -5 -88 -4 -88 18 0 22 6 25 80 38 14 2 37 9 53 15 15 6 39 13 54 16 99 18
137 30 163 52 41 34 41 72 0 96 -16 10 -30 22 -30 28 0 8 -83 6 -160 -5 -83
-12 -112 -18 -170 -34 l-65 -18 -32 34 -32 35 71 86 c39 47 93 111 122 141 28
30 50 58 48 63 -1 4 3 7 9 7 6 0 21 12 33 27 25 32 86 131 86 141 1 4 9 25 20
47 11 22 19 43 20 47 0 16 62 141 75 155 8 8 15 19 15 24 0 5 5 9 10 9 11 0
110 79 150 119 14 14 37 42 50 61 13 19 27 37 31 40 9 7 89 155 89 166 0 5
-10 -7 -21 -26 -12 -19 -25 -37 -28 -40 -4 -3 -18 -23 -31 -45 -13 -22 -28
-44 -32 -50 -4 -5 -22 -30 -40 -54 -48 -64 -56 -63 -52 11 1 35 5 74 8 87 7
31 37 53 53 39 9 -7 13 -7 13 0 0 6 6 9 14 6 17 -7 50 46 66 106 16 61 18 62
45 44 22 -14 24 -14 33 3 6 10 13 50 17 87 3 38 8 73 11 78 3 5 37 24 75 44
64 32 77 45 94 94 1 3 5 14 9 25 4 11 13 34 18 50 6 17 22 54 35 83 13 29 20
59 17 65 -4 7 -4 9 1 5 8 -8 55 73 48 82 -2 2 -14 -7 -26 -22 -24 -27 -92 -67
-117 -69 -10 0 -11 -2 -2 -6 13 -5 17 -33 5 -33 -18 1 -32 17 -30 37 0 12 3
20 5 18 2 -2 15 9 29 26 14 16 35 29 48 29 12 0 26 7 29 16 11 29 -8 41 -43
27z m-418 -438 c-3 -9 -8 -14 -10 -11 -3 3 -2 9 2 15 9 16 15 13 8 -4z m-363
-370 c-7 -8 -9 -15 -4 -15 13 0 -37 -25 -64 -32 -14 -4 -22 -2 -22 6 0 20 32
44 65 49 17 2 32 5 34 6 2 0 -2 -6 -9 -14z m161 -218 c-10 -9 -11 -8 -5 6 3
10 9 15 12 12 3 -3 0 -11 -7 -18z m-260 -174 c13 -16 12 -17 -3 -4 -10 7 -18
15 -18 17 0 8 8 3 21 -13z m-706 -633 c3 -6 -1 -7 -9 -4 -18 7 -21 14 -7 14 6
0 13 -4 16 -10z m-634 -687 c13 -16 12 -17 -3 -4 -17 13 -22 21 -14 21 2 0 10
-8 17 -17z m480 0 c13 -16 12 -17 -3 -4 -17 13 -22 21 -14 21 2 0 10 -8 17
-17z m-434 -108 c0 -8 -4 -12 -9 -9 -5 3 -6 10 -3 15 9 13 12 11 12 -6z m-846
-438 c-10 -9 -11 -8 -5 6 3 10 9 15 12 12 3 -3 0 -11 -7 -18z m3 -113 c3 -8 2
-12 -4 -9 -6 3 -10 10 -10 16 0 14 7 11 14 -7z m-314 -368 c0 -2 -7 -7 -16
-10 -8 -3 -12 -2 -9 4 6 10 25 14 25 6z m-270 -122 c0 -8 -19 -13 -24 -6 -3 5
1 9 9 9 8 0 15 -2 15 -3z m-240 -160 c0 -8 -19 -13 -24 -6 -3 5 1 9 9 9 8 0
15 -2 15 -3z"/>
<path d="M947 4394 c-26 -26 -67 -119 -67 -152 0 -33 -23 -51 -70 -54 -47 -3
-49 0 -36 45 15 49 -46 177 -83 177 -31 0 -55 -38 -87 -138 l-31 -97 -71 -5
c-83 -6 -103 -20 -108 -78 -6 -60 20 -87 81 -85 40 2 46 -1 39 -15 -4 -9 -9
-32 -12 -49 -2 -18 -8 -34 -13 -34 -5 -1 -13 -3 -19 -4 -5 -1 -30 -3 -55 -4
-61 -1 -86 -26 -81 -82 5 -47 32 -82 58 -76 26 7 31 -8 13 -43 -39 -76 -23
-131 45 -151 36 -11 43 -10 75 12 20 14 35 32 35 44 0 11 7 33 15 49 9 16 13
31 11 33 -3 3 4 22 15 43 17 33 25 39 62 43 54 5 65 -5 42 -40 -29 -43 -44
-104 -33 -134 9 -26 63 -59 96 -59 31 0 69 44 86 100 32 104 53 140 82 140 43
0 103 22 131 48 l26 24 -24 21 c-24 22 -72 48 -97 53 -8 1 -16 4 -18 7 -5 5
26 96 34 101 4 2 35 7 70 10 78 8 112 23 112 49 0 33 -68 87 -110 87 -17 0
-21 4 -15 18 24 63 5 149 -44 196 l-28 27 -26 -27z m-140 -378 c-3 -8 -11 -32
-17 -53 -12 -39 -13 -40 -62 -42 -27 -1 -53 1 -57 3 -4 3 -1 28 8 56 l15 50
59 0 c47 0 58 -3 54 -14z"/>
<path d="M7069 4264 c-12 -13 -28 -24 -36 -24 -7 0 -28 -15 -46 -33 -17 -18
-52 -49 -77 -68 -63 -48 -154 -141 -190 -194 -50 -73 -73 -134 -76 -206 -3
-59 0 -72 25 -111 29 -46 70 -81 106 -91 11 -4 53 -8 93 -11 180 -12 428 83
468 180 27 65 14 120 -69 292 -45 91 -49 106 -40 135 11 38 5 52 -47 104 -49
50 -82 58 -111 27z m81 -352 c38 -73 42 -85 31 -106 -13 -24 -124 -82 -176
-92 -70 -13 -170 -13 -188 1 -17 12 -17 16 -3 48 36 86 189 245 223 232 7 -2
23 0 35 4 13 5 26 6 29 2 4 -3 26 -43 49 -89z"/>
<path d="M1227 4263 c-12 -22 -15 -63 -7 -93 5 -19 6 -36 1 -39 -14 -10 -18
-35 -10 -65 14 -48 20 -165 10 -183 -5 -10 -11 -31 -14 -48 -3 -16 -14 -58
-25 -93 -28 -86 -13 -176 33 -206 22 -15 30 -13 136 29 277 112 388 206 377
319 -6 55 -42 126 -87 170 -46 44 -180 136 -199 136 -8 0 -49 15 -91 34 -92
41 -118 49 -124 39z m173 -208 c25 -9 63 -26 85 -38 41 -21 115 -89 115 -105
0 -23 -48 -66 -104 -94 -33 -17 -78 -39 -98 -49 -50 -26 -60 -24 -52 8 15 59
6 265 -12 295 -5 7 -2 9 7 6 8 -3 34 -13 59 -23z"/>
<path d="M6496 4221 c-8 -27 -19 -58 -24 -68 -5 -10 -13 -40 -16 -68 -10 -82
-27 -147 -52 -201 -25 -54 -67 -100 -82 -90 -11 7 -16 191 -5 209 4 6 9 18 10
25 7 30 12 47 13 47 1 0 3 13 5 30 7 53 -65 133 -136 150 -24 6 -28 2 -49 -46
-12 -29 -69 -149 -126 -266 -116 -237 -114 -230 -64 -336 28 -59 58 -81 92
-68 32 12 43 27 62 85 9 27 27 67 40 88 l23 39 31 -53 c35 -61 106 -133 141
-141 89 -22 219 151 235 313 7 70 31 177 44 193 22 26 25 85 6 116 -10 17 -21
31 -25 31 -3 0 -23 14 -44 30 -21 17 -44 30 -51 30 -7 0 -20 -22 -28 -49z"/>
<path d="M8322 4257 c-14 -16 -64 -126 -97 -212 -46 -122 -95 -213 -131 -244
-41 -37 -50 -38 -57 -8 -8 32 -2 89 22 195 l21 94 -20 33 c-11 18 -37 45 -57
61 l-36 27 -28 -34 c-15 -19 -63 -92 -106 -164 -76 -126 -192 -265 -222 -265
-21 0 -6 75 50 247 27 84 49 158 49 164 0 16 -87 99 -103 99 -60 0 -144 -221
-191 -502 -6 -39 45 -140 87 -172 85 -65 184 -35 337 104 30 27 57 50 60 50 3
0 23 -34 45 -76 40 -77 94 -137 117 -130 7 3 25 7 40 10 62 14 150 122 217
269 21 45 59 132 86 194 l48 112 -17 45 c-15 40 -79 116 -97 116 -4 0 -11 -6
-17 -13z"/>
<path d="M2249 4256 c-2 -2 -35 -7 -74 -11 -106 -11 -323 -69 -350 -95 -22
-21 -22 -23 -9 -81 8 -32 19 -67 25 -77 9 -15 2 -38 -41 -127 -53 -109 -59
-137 -44 -210 11 -60 35 -96 71 -111 75 -32 360 -11 445 32 14 8 36 27 47 43
25 35 17 62 -31 100 -28 22 -32 23 -86 11 -66 -14 -79 -16 -189 -25 -51 -4
-84 -2 -87 4 -7 11 27 86 44 96 5 3 54 7 108 8 96 2 101 3 155 39 44 29 54 41
50 57 -3 11 -13 23 -23 26 -9 3 -28 18 -42 33 -23 26 -28 27 -89 22 -74 -6
-113 0 -116 17 -4 16 23 29 72 37 22 3 58 12 80 20 22 8 49 15 61 16 41 0 123
31 145 54 35 37 33 59 -9 93 -33 26 -99 43 -113 29z"/>
</g>
</svg>
